# xmcd
#
# Track frame offsets: 
#        150
#        11176
#        20038
#        34617
#        46595
#        62872
#        75375
#        89843
#        110183
#        130304
#        142080
#        154896
#        168978
#        183539
#        199681
#        211575
#        225247
#        242194
#        268137
#        281449
#        295110
#        309881
#        327097
#
# Disc length: 4548 seconds
#
# Revision: 0
# Processed by: cddbd v1.5.2PL0 Copyright (c) Steve Scherf et al.
# Submitted via: ExactAudioCopy v0.95b4
#
DISCID=4711c217
DTITLE=Ella Fitzgerald - Great female artists
DYEAR=1900
DGENRE=Blues
TTITLE0=That old black magic
TTITLE1=over come back to me
TTITLE2=Rock it or me
TTITLE3=All or nothing at all
TTITLE4=It's a blue world
TTITLE5=Big boy blue
TTITLE6=Dedicated to you
TTITLE7=I want to be happy
TTITLE8=A foggy day in London
TTITLE9=Cryin' mood
TTITLE10=Love is the thing, so they say
TTITLE11=You showed me the way
TTITLE12=If you ever shoul leave
TTITLE13=Moonlight in Vermont
TTITLE14=Sing song swing
TTITLE15=Starlight hour
TTITLE16=Can't we be friends
TTITLE17=Cheek to cheek
TTITLE18=Sugar blues
TTITLE19=Basin street blues
TTITLE20=Deep in the heart of the south
TTITLE21=A fine romance
TTITLE22=Stairway to the stars
EXTD=
EXTT0=
EXTT1=
EXTT2=
EXTT3=
EXTT4=
EXTT5=
EXTT6=
EXTT7=
EXTT8=
EXTT9=
EXTT10=
EXTT11=
EXTT12=
EXTT13=
EXTT14=
EXTT15=
EXTT16=
EXTT17=
EXTT18=
EXTT19=
EXTT20=
EXTT21=
EXTT22=
PLAYORDER=
